<svg width="30" height="30" viewBox="0 0 30 30" fill="none" xmlns="http://www.w3.org/2000/svg">
<path d="M14.28 13.17H15.72L16.32 13.26L16.77 13.38L16.98 13.47L17.46 13.65L17.79 13.8L18.09 13.98L18.18 14.01V14.07L18.3 14.1L18.51 14.22V14.28L18.66 14.34L18.9 14.52V14.58L19.02 14.64L19.14 14.73V14.79L19.26 14.85L19.5 15.09L19.71 15.33L20.1 15.84L20.22 16.02V16.11H20.28L20.46 16.47L20.7 16.89L20.73 17.01H20.79L20.94 17.28V17.34H21L21.06 17.52H21.12L21.3 17.76L21.57 18.06V18.12H21.63V18.18H21.69V18.24H21.75V18.3L21.87 18.36L22.14 18.6L22.2 18.63V18.69L22.35 18.75V18.81L22.5 18.87L23.22 19.35L23.43 19.5L23.52 19.53V19.59L23.67 19.65L24.27 20.04V20.1L24.39 20.13L24.45 20.16V20.22L24.6 20.28L25.14 20.64L25.44 20.88V20.94L25.56 21L25.62 21.12H25.68V21.18H25.74L26.04 21.57L26.31 21.99L26.43 22.23L26.52 22.47L26.61 22.68L26.7 23.04L26.73 23.31L26.76 23.37V24.6L26.67 24.96L26.61 25.26L26.46 25.62L26.25 26.04L25.98 26.46L25.74 26.76H25.68V26.82H25.62L25.56 26.94L25.26 27.21L24.84 27.51L24.48 27.72L24.09 27.87L23.91 27.96L23.4 28.08L23.22 28.11H22.2L21.72 27.96L21.39 27.75L21.09 27.51V27.45H21.03V27.39H20.97V27.33H20.91V27.27H20.85V27.21H20.79L20.64 27.06V27H20.58V26.94H20.52V26.88H20.46V26.82H20.4V26.76H20.34L20.19 26.58L20.13 26.55V26.49H20.07V26.43H20.01V26.37H19.95V26.31H19.89V26.25H19.83V26.19L19.71 26.13L19.5 26.04V25.98H19.35L19.32 25.95L18.99 25.89L18.51 25.95L18.15 26.13L17.88 26.37L17.7 26.61L17.55 26.88L17.31 27.21L17.07 27.57L16.71 27.96H16.65V28.02L16.35 28.23L16.23 28.29H16.14V28.35L15.72 28.5L15.69 28.53H14.31L13.98 28.38L13.86 28.35V28.29L13.74 28.26L13.53 28.14L13.35 28.02V27.96L13.23 27.9L13.11 27.78V27.72H13.05L12.72 27.27L12.33 26.67L12.06 26.31L11.85 26.13L11.64 26.01L11.49 25.95L11.01 25.89L10.68 25.95L10.26 26.16L10.17 26.19V26.25H10.11V26.31H10.05V26.37H9.98999V26.43H9.92999V26.49H9.86999V26.55H9.80999L9.77999 26.64H9.71999V26.7H9.65999V26.76H9.59999V26.82H9.53999V26.88H9.47999V26.94H9.41999V27H9.35999L9.32999 27.09H9.26999V27.15H9.20999V27.21H9.14999V27.27H9.08999V27.33H9.02999V27.39H8.96999V27.45H8.90999V27.51L8.48999 27.84H8.39999V27.9L8.00999 28.05L7.79999 28.11H6.77999L6.29999 28.02L5.90999 27.9V27.84L5.75999 27.81L5.51999 27.72L5.06999 27.45L4.67999 27.15L4.55999 27.06V27L4.43999 26.94L4.37999 26.82H4.31999V26.76H4.25999L4.01999 26.46L3.80999 26.13L3.68999 25.95V25.86H3.62999L3.53999 25.62L3.44999 25.44L3.29999 24.9L3.23999 24.6V23.37L3.38999 22.68L3.47999 22.47L3.50999 22.35H3.56999L3.59999 22.2L3.74999 21.9L3.80999 21.78H3.86999L3.89999 21.66L4.19999 21.27L4.25999 21.18H4.31999V21.12H4.37999V21.06H4.43999L4.49999 20.94H4.55999V20.88L4.82999 20.67H4.88999V20.61L5.48999 20.22L5.63999 20.16V20.1H5.72999V20.04L5.81999 19.98H5.90999V19.92L6.38999 19.62L6.83999 19.32L6.98999 19.2H7.07999V19.14L7.58999 18.81H7.64999V18.75L7.79999 18.69V18.63L7.94999 18.57V18.51L8.18999 18.3H8.24999V18.24H8.30999V18.18H8.36999V18.12H8.42999V18.06H8.48999L8.54999 17.94L8.84999 17.58L8.87999 17.52H8.93999L8.99999 17.34H9.05999L9.11999 17.19L9.20999 17.01H9.26999L9.29999 16.89L9.47999 16.59L9.65999 16.23L9.71999 16.11H9.77999L9.80999 15.99L10.08 15.6L10.32 15.3L10.77 14.82L10.86 14.79V14.73L11.04 14.58H11.1V14.52L11.25 14.46V14.4L11.82 14.01L12.15 13.83L12.39 13.71L12.84 13.53L13.05 13.44L13.44 13.32L13.92 13.23L14.28 13.17Z" fill="#4F3129"/>
<path d="M9.86999 1.47H11.22L11.43 1.56L11.67 1.65L12.15 1.95L12.33 2.1V2.16H12.39L12.54 2.34V2.4H12.6L12.84 2.76L13.05 3.3L13.14 3.6L13.17 3.63V3.81H13.23L13.32 4.2L13.38 4.41L13.5 4.95L13.53 5.22L13.56 5.28L13.62 5.67L13.65 6.06L13.68 6.18V8.19L13.65 8.28L13.62 8.64L13.59 8.7L13.56 8.97L13.44 9.45L13.35 9.81L13.29 10.02H13.23L13.2 10.17L13.17 10.29H13.11L13.05 10.47H12.99L12.96 10.59L12.78 10.8H12.72V10.86H12.66V10.92L12.51 10.98V11.04L12.15 11.25L11.85 11.37L11.61 11.43H10.8L10.56 11.34L10.29 11.25L9.89999 11.01L9.53999 10.68L9.38999 10.47V10.41H9.32999L9.17999 10.14L8.99999 9.84L8.78999 9.42L8.54999 8.94V8.82H8.48999L8.36999 8.52V8.37H8.30999L8.21999 8.07L8.12999 7.83L8.00999 7.29L7.91999 6.99L7.85999 6.69L7.82999 6.39L7.79999 6.33L7.76999 5.94L7.73999 5.82V4.32L7.76999 4.26L7.79999 3.99L7.82999 3.96L7.85999 3.75L7.94999 3.51L8.12999 3.03L8.24999 2.79H8.30999L8.33999 2.67L8.54999 2.34H8.60999L8.66999 2.22L8.90999 1.98L9.20999 1.77H9.29999V1.71L9.41999 1.65H9.53999V1.59L9.83999 1.5L9.86999 1.47Z" fill="#4F3129"/>
<path d="M18.78 1.47H20.13L20.34 1.56L20.46 1.59V1.65L20.61 1.68L20.91 1.86L21.09 1.98V2.04L21.21 2.1L21.39 2.28V2.34H21.45L21.69 2.7V2.79H21.75L21.9 3.12L22.02 3.42L22.11 3.72L22.14 3.75L22.17 3.96L22.2 3.99L22.23 4.26L22.26 4.32V5.82L22.23 5.94L22.2 6.33L22.17 6.39L22.14 6.69L22.05 7.05L21.87 7.83L21.78 8.07L21.69 8.37L21.54 8.7L21.51 8.82H21.45L21.42 9.03L21.12 9.6L20.88 10.05L20.7 10.32L20.67 10.41H20.61L20.55 10.56L20.22 10.92L19.92 11.13L19.59 11.31L19.23 11.4L19.2 11.43H18.39L18 11.31L17.64 11.13L17.49 11.04V10.98L17.34 10.92V10.86H17.28V10.8H17.22L17.01 10.56V10.47H16.95L16.89 10.29H16.83L16.77 10.14V10.02H16.71V9.84H16.65L16.5 9.21L16.44 8.97L16.41 8.7L16.38 8.64L16.35 8.28L16.32 8.19V6.18L16.35 6.06L16.38 5.67L16.44 5.28L16.47 5.22L16.5 4.95L16.56 4.68L16.71 4.02L16.77 3.81H16.83V3.63L16.92 3.42L17.04 3.03L17.22 2.67L17.4 2.4H17.46L17.52 2.28L17.67 2.1L18.03 1.83L18.33 1.65L18.6 1.53L18.78 1.47Z" fill="#4F3129"/>
<path d="M24.87 7.73999H25.77L25.8 7.76999L26.01 7.79999L26.22 7.88999L26.46 7.97999L26.82 8.18999V8.24999L26.97 8.30999V8.36999L27.09 8.42999L27.3 8.63999L27.6 9.08999L27.84 9.56999V9.71999H27.9L28.05 10.29L28.08 10.32V12.63L28.05 12.69L27.96 13.26L27.9 13.56H27.84V13.77L27.81 13.8L27.78 14.01H27.72V14.19L27.63 14.4L27.45 14.97L27.24 15.39L27.12 15.66L26.85 16.17L26.82 16.26H26.76L26.73 16.38L26.64 16.56H26.58L26.52 16.71L26.37 16.95H26.31L26.25 17.07L25.95 17.34L25.68 17.52L25.44 17.64L25.08 17.73H24.21L23.88 17.64L23.61 17.52V17.46L23.49 17.43L23.25 17.25L23.16 17.19V17.13H23.1V17.07H23.04V17.01H22.98L22.86 16.86L22.77 16.71V16.62H22.71V16.5H22.65L22.56 16.2L22.53 16.17V15.99H22.47L22.38 15.57L22.35 15.54L22.26 15L22.2 14.55V12.45L22.23 12.06L22.29 11.64L22.32 11.58L22.35 11.31L22.41 11.01L22.44 10.98L22.47 10.77L22.5 10.74L22.53 10.53L22.62 10.29L22.68 10.05L22.8 9.62999L22.86 9.44999H22.92L22.95 9.26999L23.04 9.05999H23.1L23.13 8.93999L23.34 8.63999L23.67 8.30999H23.73V8.24999L24.06 8.03999L24.3 7.91999L24.6 7.82999L24.87 7.73999Z" fill="#4F3129"/>
<path d="M4.22998 7.73999H5.12998L5.54998 7.85999L6.02998 8.09999L6.26998 8.24999V8.30999L6.38998 8.36999L6.71998 8.69999L6.89998 8.96999V9.05999H6.95998L7.07998 9.32999V9.44999H7.13998L7.22998 9.77999L7.31998 10.05L7.40999 10.32L7.46999 10.53V10.74H7.52998L7.55998 10.98L7.58998 11.01L7.67999 11.58L7.70998 11.64L7.76998 12.06L7.79998 12.45V14.55L7.76998 14.88L7.70998 15.24L7.64998 15.54L7.55998 15.81L7.52998 15.99H7.46999V16.17L7.37998 16.38L7.34998 16.5H7.28998V16.62H7.22998L7.19998 16.74L7.07998 16.92L7.01998 17.01H6.95998V17.07H6.89998V17.13H6.83998V17.19L6.47998 17.46H6.38998V17.52L5.99998 17.67L5.78998 17.73H4.91998L4.55998 17.64L4.22998 17.46L3.83998 17.16L3.68998 17.01V16.95H3.62998L3.41998 16.62V16.56H3.35998L3.23998 16.35V16.26H3.17998L2.93998 15.78L2.78998 15.48L2.60998 15.12L2.30998 14.22L2.27998 14.19V14.01H2.21998L2.18998 13.8L2.09998 13.56L1.97998 12.96L1.94998 12.69L1.91998 12.63V10.32L2.00998 10.05L2.09998 9.71999H2.15998V9.56999L2.45998 8.99999L2.75998 8.57999L2.90998 8.42999H2.96998V8.36999H3.02998V8.30999L3.17998 8.24999V8.18999L3.53998 7.97999L3.80998 7.85999L3.98998 7.79999L4.19998 7.76999L4.22998 7.73999Z" fill="#4F3129"/>
</svg>
