<svg width="30" height="30" viewBox="0 0 30 30" fill="none" xmlns="http://www.w3.org/2000/svg">
<g clip-path="url(#clip0_471_1853)">
<path d="M13.6072 5.78571H16.3929L18.3214 6.10713L19.8214 6.53571L21.5357 7.39285L22.7143 8.24999L23.25 8.78571L24.1072 9.74999L24.75 10.8214L25.1786 12.1071L25.2857 12.6428V14.1428L24.9643 15.1071L24.5357 15.75L23.7857 16.1786L23.3572 16.2857H22.1786L21.3214 15.8571L20.6786 15.1071L20.3572 14.25V13.5L20.7857 12.8571L21.3214 12.5357H21.5357L21.2143 12L20.4643 11.7857H19.7143L19.1786 12.2143L18.75 13.0714L18.5357 13.9286L18.6429 15.1071L18.9643 15.75V15.9643H19.1786L19.7143 16.5L20.4643 16.8214L22.0714 16.9286L22.7143 17.25L23.25 17.8928V19.0714L22.7143 20.0357L21.8572 20.8928L20.7857 21.4286L18.6429 22.0714L16.9286 22.9286L15.9643 23.5714L15.2143 24.2143L14.5714 24.1071L14.0357 23.5714L12.9643 22.8214L11.0357 21.9643L8.67858 21.2143L7.60715 20.4643L7.50001 20.1428H7.28572L6.75001 19.1786L6.64287 18.2143L6.96429 17.4643L7.50001 17.0357L7.92858 16.9286L9.42858 16.8214L10.2857 16.5L10.7143 16.2857L10.9286 15.8571L11.3572 14.8928V13.5L10.9286 12.5357L10.5 11.8928L9.53572 11.7857L8.57144 12.1071L8.46429 12.5357L9.00001 12.75L9.53572 13.2857L9.64287 14.0357L9.32144 15L8.78572 15.75L8.14287 16.1786L7.82144 16.2857H6.64287L5.57144 15.8571L4.92858 15L4.71429 14.3571V12.3214L5.14287 11.0357L5.78572 9.85713L6.64287 8.78571L7.71429 7.82142L9.10715 6.96428L10.7143 6.32142L12.75 5.89285L13.6072 5.78571Z" fill="#4F3129"/>
<path d="M13.0714 0H16.9286L19.0714 0.428571L20.8929 1.07143L22.6071 1.92857L23.8929 2.78571L24.9643 3.64286L26.6786 5.35714L27.9643 7.17857L28.8214 8.89286L29.4643 10.6071L29.8929 12.4286L30 13.0714V16.9286L29.5714 19.0714L28.9286 20.8929L28.0714 22.6071L27.2143 23.8929L26.3571 24.9643L24.6429 26.6786L22.8214 27.9643L21.1071 28.8214L19.3929 29.4643L17.5714 29.8929L16.9286 30H13.0714L10.9286 29.5714L9.10714 28.9286L7.39286 28.0714L6.10714 27.2143L5.03571 26.3571L3.32143 24.6429L2.03571 22.8214L1.17857 21.1071L0.535714 19.3929L0.107143 17.5714L0 16.9286V13.0714L0.428571 10.9286L1.07143 9.10714L1.92857 7.39286L2.78571 6.10714L3.64286 5.03571L5.35714 3.32143L7.17857 2.03571L8.89286 1.17857L10.6071 0.535714L12.4286 0.107143L13.0714 0ZM14.8929 1.5L12.6429 1.71429L10.6071 2.25L8.67857 3.10714L7.28571 3.96429L6.32143 4.71429L5.14286 5.78571L4.17857 6.96429L3.21429 8.46429L2.46429 10.0714L1.92857 11.6786L1.60714 13.5L1.5 15.1071L1.71429 17.3571L2.25 19.3929L3.10714 21.3214L3.96429 22.7143L4.71429 23.6786L5.78571 24.8571L6.96429 25.8214L8.46429 26.7857L10.0714 27.5357L11.6786 28.0714L13.5 28.3929L15.1071 28.5L17.3571 28.2857L19.3929 27.75L21.3214 26.8929L22.7143 26.0357L23.6786 25.2857L24.9643 24.1071L25.8214 23.0357L26.7857 21.5357L27.6429 19.7143L28.0714 18.3214L28.3929 16.5L28.5 14.8929L28.2857 12.6429L27.75 10.6071L26.8929 8.67857L26.0357 7.28571L25.2857 6.32143L24.1071 5.03571L23.0357 4.17857L21.5357 3.21429L19.9286 2.46429L18.3214 1.92857L16.5 1.60714L14.8929 1.5Z" fill="#4F3129"/>
</g>
<defs>
<clipPath id="clip0_471_1853">
<rect width="30" height="30" fill="white"/>
</clipPath>
</defs>
</svg>
